<?xml version="1.0" encoding="UTF-8"?>
<svg width="2521px" height="1318px" viewBox="0 0 2521 1318" version="1.1" xmlns="http://www.w3.org/2000/svg" xmlns:xlink="http://www.w3.org/1999/xlink">
    <!-- Generator: Sketch 53.2 (72643) - https://sketchapp.com -->
    <title>Group 16</title>
    <desc>Created with Sketch.</desc>
    <g id="Homepage" stroke="none" stroke-width="1" fill="none" fill-rule="evenodd">
        <g id="Group-16" transform="translate(-112.000000, -112.000000)" fill-rule="nonzero">
            <g id="Group-7">
                <g id="Group-6" transform="translate(0.000000, 416.073997)">
                    <path d="M389.27937,292.905369 C344.638829,337.521383 315.818699,443.481349 315.818699,562.882534 C315.818699,682.283718 344.638829,788.243684 389.402009,832.859698 C434.165189,877.475712 539.977989,906.295841 659.232007,906.295841 C778.486025,906.295841 884.617685,877.475712 929.233699,832.859698 L929.233699,832.859698 C973.825185,788.243684 1002.66984,682.283718 1002.66984,562.882534 C1002.66984,443.481349 973.825185,337.521383 929.233699,292.905369 C884.642213,248.289355 778.633191,219.469226 659.232007,219.469226 C539.830822,219.469226 433.870856,248.289355 389.27937,292.905369" id="Path" fill="#3EA8B5" transform="translate(659.244271, 562.882534) rotate(-407.000000) translate(-659.244271, -562.882534) "></path>
                    <path d="M234.390628,234.360782 C180.069779,288.651784 145,417.589185 145,562.882534 C145,708.175882 180.069779,837.113283 234.539861,891.404285 C289.009944,945.695288 417.768265,980.765067 562.882534,980.765067 C707.996802,980.765067 837.143129,945.695288 891.434132,891.404285 L891.434132,891.404285 C945.695288,837.113283 980.794914,708.175882 980.794914,562.882534 C980.794914,417.589185 945.695288,288.651784 891.434132,234.360782 C837.172976,180.069779 708.175882,145 562.882534,145 C417.589185,145 288.651784,180.069779 234.390628,234.360782" id="Path" stroke="#3EA8B5" stroke-width="0.5" transform="translate(562.897457, 562.882534) rotate(63.000000) translate(-562.897457, -562.882534) "></path>
                </g>
                <g id="Group-5" transform="translate(1539.190970, 0.000000)">
                    <path d="M241.460671,474.842306 C196.82013,519.458319 168,625.418286 168,744.81947 C168,864.220654 196.82013,970.180621 241.58331,1014.79663 C286.34649,1059.41265 392.15929,1088.23278 511.413308,1088.23278 C630.667326,1088.23278 736.798986,1059.41265 781.415,1014.79663 L781.415,1014.79663 C826.006486,970.180621 854.851143,864.220654 854.851143,744.81947 C854.851143,625.418286 826.006486,519.458319 781.415,474.842306 C736.823514,430.226292 630.814492,401.406162 511.413308,401.406162 C392.012123,401.406162 286.052157,430.226292 241.460671,474.842306" id="Path" fill="#F6C15C" transform="translate(511.425572, 744.819470) rotate(-407.000000) translate(-511.425572, -744.819470) "></path>
                    <path d="M262.733097,410.729289 C208.412248,465.020291 173.342469,593.957692 173.342469,739.25104 C173.342469,884.544389 208.412248,1013.48179 262.882331,1067.77279 C317.352413,1122.06379 446.110734,1157.13357 591.225003,1157.13357 C736.339271,1157.13357 865.485598,1122.06379 919.776601,1067.77279 L919.776601,1067.77279 C974.037757,1013.48179 1009.13738,884.544389 1009.13738,739.25104 C1009.13738,593.957692 974.037757,465.020291 919.776601,410.729289 C865.515445,356.438286 736.518351,321.368507 591.225003,321.368507 C445.931654,321.368507 316.994253,356.438286 262.733097,410.729289" id="Path" stroke="#F6C15C" stroke-width="0.5" transform="translate(591.239926, 739.251040) rotate(17.000000) translate(-591.239926, -739.251040) "></path>
                    <path d="M262.733097,410.729289 C208.412248,465.020291 173.342469,593.957692 173.342469,739.25104 C173.342469,884.544389 208.412248,1013.48179 262.882331,1067.77279 C317.352413,1122.06379 446.110734,1157.13357 591.225003,1157.13357 C736.339271,1157.13357 865.485598,1122.06379 919.776601,1067.77279 L919.776601,1067.77279 C974.037757,1013.48179 1009.13738,884.544389 1009.13738,739.25104 C1009.13738,593.957692 974.037757,465.020291 919.776601,410.729289 C865.515445,356.438286 736.518351,321.368507 591.225003,321.368507 C445.931654,321.368507 316.994253,356.438286 262.733097,410.729289" id="Path" stroke="#F6C15C" stroke-width="0.5" transform="translate(591.239926, 739.251040) rotate(43.000000) translate(-591.239926, -739.251040) "></path>
                    <path d="M314.476282,234.360782 C260.155433,288.651784 225.085654,417.589185 225.085654,562.882534 C225.085654,708.175882 260.155433,837.113283 314.625515,891.404285 C369.095598,945.695288 497.853919,980.765067 642.968187,980.765067 C788.082456,980.765067 917.228783,945.695288 971.519786,891.404285 L971.519786,891.404285 C1025.78094,837.113283 1060.88057,708.175882 1060.88057,562.882534 C1060.88057,417.589185 1025.78094,288.651784 971.519786,234.360782 C917.25863,180.069779 788.261536,145 642.968187,145 C497.674839,145 368.737438,180.069779 314.476282,234.360782" id="Path" stroke="#FFFFFF" stroke-width="0.5" transform="translate(642.983111, 562.882534) rotate(63.000000) translate(-642.983111, -562.882534) "></path>
                </g>
                <path d="M292.167252,439.860782 C237.846402,494.151784 202.776623,623.089185 202.776623,768.382534 C202.776623,913.675882 237.846402,1042.61328 292.316485,1096.90429 C346.786567,1151.19529 475.544888,1186.26507 620.659157,1186.26507 C765.773426,1186.26507 894.919753,1151.19529 949.210755,1096.90429 L949.210755,1096.90429 C1003.47191,1042.61328 1038.57154,913.675882 1038.57154,768.382534 C1038.57154,623.089185 1003.47191,494.151784 949.210755,439.860782 C894.949599,385.569779 765.952505,350.5 620.659157,350.5 C475.365808,350.5 346.428408,385.569779 292.167252,439.860782" id="Path" stroke="#FFFFFF" stroke-width="0.5" transform="translate(620.674080, 768.382534) rotate(63.000000) translate(-620.674080, -768.382534) "></path>
            </g>
        </g>
    </g>
</svg>